# xmcd
#
# Track frame offsets: 
#        150
#        8785
#        22519
#        32621
#        43186
#        53142
#        64649
#        80955
#        92173
#        106851
#        119504
#        129782
#        143840
#        163272
#        173649
#        189297
#        207481
#        222023
#        235963
#        249688
#        263479
#        277569
#        291492
#        302987
#
# Disc length: 4229 seconds
#
# Revision: 0
# Processed by: cddbd v1.5.2PL0 Copyright (c) Steve Scherf et al.
# Submitted via: ExactAudioCopy v1.1
#
DISCID=4c108318
DTITLE=Jimmy Frey - De Allergrootste Hits - CD 3
DYEAR=2019
DGENRE=Chanson
TTITLE0=Ne Me Jette Pas La Pierre
TTITLE1=Non (Non Pas Ca)
TTITLE2=Si Je T'Avais
TTITLE3=Soufflé
TTITLE4=Elle T'Aime
TTITLE5=C'Est Comme Ca Dis
TTITLE6=Oh My Darling
TTITLE7=Tu Me Reviendras
TTITLE8=Tu Ne M'Aimes Plus
TTITLE9=Aimer Et Vivre Chanter
TTITLE10=Angélique
TTITLE11=Yo Te Quiero Maria
TTITLE12=Je T'Appelle Pour Dire Je T'Aime
TTITLE13=Let Me Into Your Life
TTITLE14=Saragossa (Engelse Versie)
TTITLE15=Stay With Me
TTITLE16=Can't Live Without You
TTITLE17=Mi Dulce Geisha
TTITLE18=Ninas De Ojos Gitanos
TTITLE19=Rosas A Sandra
TTITLE20=Vida Mía
TTITLE21=Dormiras En Mi Casa
TTITLE22=Besser Zu Früh Als Zu Spät
TTITLE23=Rosen Für Sandra
EXTD=
EXTT0=
EXTT1=
EXTT2=
EXTT3=
EXTT4=
EXTT5=
EXTT6=
EXTT7=
EXTT8=
EXTT9=
EXTT10=
EXTT11=
EXTT12=
EXTT13=
EXTT14=
EXTT15=
EXTT16=
EXTT17=
EXTT18=
EXTT19=
EXTT20=
EXTT21=
EXTT22=
EXTT23=
PLAYORDER=
